HIERARCHY
ROOT Pelvis
{
	OFFSET 0.000000 0.000000 0.000000
	CHANNELS 6 Xposition Yposition Zposition Xrotation Yrotation Zrotation
	JOINT LeftUpLeg_virtual
	{
		OFFSET 0.000000 0.000000 0.000000
		CHANNELS 3 Xrotation Yrotation Zrotation
		JOINT LeftUpLeg
		{
			OFFSET 18.735201 -5.666702 -4.541200
			CHANNELS 3 Xrotation Yrotation Zrotation
			JOINT LeftLeg
			{
				OFFSET -0.021200 -31.938179 0.493100
				CHANNELS 3 Xrotation Yrotation Zrotation
				JOINT LeftFoot
				{
					OFFSET 0.021200 -31.938179 -4.336299
					CHANNELS 3 Xrotation Yrotation Zrotation
					JOINT LeftToeBase
					{
						OFFSET 0.943001 -26.722000 15.023500
						CHANNELS 3 Xrotation Yrotation Zrotation
						End Site
						{
							OFFSET 0 0 0
						}
					}
				}
			}
		}
	}
	JOINT RightUpLeg_virtual
	{
		OFFSET 0.000000 0.000000 0.000000
		CHANNELS 3 Xrotation Yrotation Zrotation
		JOINT RightUpLeg
		{
			OFFSET -18.735201 -5.666702 -4.541200
			CHANNELS 3 Xrotation Yrotation Zrotation
			JOINT RightLeg
			{
				OFFSET 0.018946 -31.938133 0.493100
				CHANNELS 3 Xrotation Yrotation Zrotation
				JOINT RightFoot
				{
					OFFSET -0.018946 -31.938126 -4.336299
					CHANNELS 3 Xrotation Yrotation Zrotation
					JOINT RightToeBase
					{
						OFFSET -0.943001 -26.722004 15.023500
						CHANNELS 3 Xrotation Yrotation Zrotation
						End Site
						{
							OFFSET 0 0 0
						}
					}
				}
			}
		}
	}
	JOINT Hips_virtual
	{
		OFFSET 0.000000 0.000000 0.000000
		CHANNELS 3 Xrotation Yrotation Zrotation
		JOINT Hips
		{
			OFFSET -0.000000 -0.000000 -0.000000
			CHANNELS 3 Xrotation Yrotation Zrotation
			JOINT Spine
			{
				OFFSET 0.000000 10.199997 -0.299500
				CHANNELS 3 Xrotation Yrotation Zrotation
				JOINT Spine1
				{
					OFFSET 0.000000 11.900002 -1.516600
					CHANNELS 3 Xrotation Yrotation Zrotation
					JOINT Spine2
					{
						OFFSET 0.000000 13.600006 -2.842500
						CHANNELS 3 Xrotation Yrotation Zrotation
						JOINT Neck_virtual
						{
							OFFSET 0.000000 0.000000 0.000000
							CHANNELS 3 Xrotation Yrotation Zrotation
							JOINT Neck
							{
								OFFSET 0.000000 9.624100 -2.890100
								CHANNELS 3 Xrotation Yrotation Zrotation
								JOINT Head
								{
									OFFSET 0.000000 14.068802 -1.351900
									CHANNELS 3 Xrotation Yrotation Zrotation
									End Site
									{
										OFFSET 0 0 0
									}
								}
							}
						}
						JOINT LeftShoulder_virtual
						{
							OFFSET 0.000000 0.000000 0.000000
							CHANNELS 3 Xrotation Yrotation Zrotation
							JOINT LeftShoulder
							{
								OFFSET 15.263000 10.923401 -0.547700
								CHANNELS 3 Xrotation Yrotation Zrotation
								JOINT LeftArm
								{
									OFFSET 25.438599 -2.830597 -13.032500
									CHANNELS 3 Xrotation Yrotation Zrotation
									JOINT LeftForeArm
									{
										OFFSET 29.960503 0.000000 0.000000
										CHANNELS 3 Xrotation Yrotation Zrotation
										JOINT LeftHand
										{
											OFFSET 27.849251 0.000000 0.000000
											CHANNELS 3 Xrotation Yrotation Zrotation
											End Site
											{
												OFFSET 0 0 0
											}
										}
									}
								}
							}
						}
						JOINT RightShoulder_virtual
						{
							OFFSET 0.000000 0.000000 0.000000
							CHANNELS 3 Xrotation Yrotation Zrotation
							JOINT RightShoulder
							{
								OFFSET -15.263000 10.923401 -0.547700
								CHANNELS 3 Xrotation Yrotation Zrotation
								JOINT RightArm
								{
									OFFSET -25.438599 -2.830597 -13.032500
									CHANNELS 3 Xrotation Yrotation Zrotation
									JOINT RightForeArm
									{
										OFFSET -29.960503 0.000000 0.000000
										CHANNELS 3 Xrotation Yrotation Zrotation
										JOINT RightHand
										{
											OFFSET -27.849251 0.000000 0.000000
											CHANNELS 3 Xrotation Yrotation Zrotation
											End Site
											{
												OFFSET 0 0 0
											}
										}
									}
								}
							}
						}
					}
				}
			}
		}
	}
}
MOTION
Frames: 6
Frame Time: 0.03333333
-0.556563 87.001404 3.677422 0.000000 0.000000 0.000000 0.194061 -6.924220 -2.482899 -42.754361 8.709308 15.373135 44.586054 -0.077879 1.156287 -6.764889 -0.897618 -3.642742 0.000000 0.000000 0.000000 -1.126977 -24.913509 0.606534 -34.352778 -10.338568 -16.596935 41.036593 -0.104610 -4.572459 -11.976763 -1.251736 4.115888 0.000000 0.000000 0.000000 0.895507 -4.322831 -0.146175 -4.016939 -10.259529 -2.451974 4.617999 2.960056 0.013228 1.718003 1.839977 -0.503445 0.000000 0.000000 0.000000 2.489233 2.109223 -0.114965 -0.217364 0.481471 1.167388 0.000000 0.000000 0.000000 2.108951 1.783190 1.155806 1.337308 -7.035383 11.018514 -36.329175 -29.831073 -42.061189 -2.032929 -74.308811 2.183986 0.000000 0.000000 0.000000 1.282404 0.907053 -1.474852 0.509848 10.032500 -2.413096 -34.835925 46.625941 38.610028 -49.601940 87.676871 48.241500 0.000000 0.000000 0.000000 
0.012221 86.828842 2.851601 0.000000 0.000000 0.000000 -0.176330 -7.097356 -3.031561 -43.113797 8.820799 14.825899 44.770237 -0.624990 1.679519 -6.665213 -1.703648 -3.315256 0.000000 0.000000 0.000000 -1.134805 -26.319378 0.251886 -34.210037 -10.672466 -16.973249 41.181355 0.117418 -5.018414 -11.897477 -0.779123 3.467770 0.000000 0.000000 0.000000 -0.289747 -3.205932 -1.227861 -0.679750 -9.593928 -2.197177 5.403635 2.254978 -0.645205 2.205598 1.753035 -0.558627 0.000000 0.000000 0.000000 3.246460 2.041796 -0.249937 0.069279 0.560412 1.327785 0.000000 0.000000 0.000000 2.507713 1.769550 1.116187 2.398191 -6.490703 12.216144 -36.708643 -31.549013 -42.885484 0.458984 -74.912238 3.630090 0.000000 0.000000 0.000000 1.881932 0.386295 -1.386215 1.637230 8.309287 -1.842644 -30.443540 47.252417 34.293608 -40.490406 86.286695 39.489312 0.000000 0.000000 0.000000 
-0.815377 86.877563 3.045687 0.000000 0.000000 0.000000 -0.255790 -6.417980 -2.648686 -43.072935 8.791885 15.173540 45.399417 -0.813190 1.922134 -6.122436 -2.010395 -3.138503 0.000000 0.000000 0.000000 -1.349520 -28.058417 0.208797 -34.392332 -11.111172 -17.043530 41.405788 0.147320 -5.359738 -11.599715 -0.511681 2.851083 0.000000 0.000000 0.000000 0.954806 -3.185298 -0.690480 -2.429131 -12.468101 -3.658657 7.186538 2.547608 -1.027475 2.336248 1.927593 -0.206106 0.000000 0.000000 0.000000 3.917603 2.194931 -0.073878 0.088590 0.439394 1.234219 0.000000 0.000000 0.000000 2.702271 2.415929 1.445731 2.666670 -7.816121 12.873996 -37.048934 -32.992761 -43.473509 -0.279440 -73.656207 2.093889 0.000000 0.000000 0.000000 1.815594 0.451651 -1.100148 1.797874 8.350521 -1.641837 -31.427336 52.114500 34.844415 -35.662818 86.112191 33.622180 0.000000 0.000000 0.000000 
-0.097131 87.030067 2.844061 0.000000 0.000000 0.000000 0.463705 -6.539268 -1.986831 -42.524413 8.676164 15.950676 46.088023 -1.236365 2.235633 -5.606416 -2.616148 -3.020865 0.000000 0.000000 0.000000 -2.139879 -28.957666 0.424191 -35.211845 -11.350537 -16.550873 40.507618 0.067445 -5.137738 -12.022835 -0.743096 3.004108 0.000000 0.000000 0.000000 0.157826 -1.996128 -1.450555 -1.769509 -12.472697 -5.260160 6.473463 1.647975 -0.445573 2.961377 1.783674 -0.469629 0.000000 0.000000 0.000000 3.372741 2.115963 0.151368 0.166056 0.446808 1.310117 0.000000 0.000000 0.000000 2.747336 2.351680 1.474423 2.479603 -6.252486 14.302496 -37.224340 -33.982971 -43.801573 0.863534 -75.633321 2.423159 0.000000 0.000000 0.000000 1.620418 0.125962 -0.880568 1.537910 6.091167 -0.564996 -31.268889 50.231288 34.027282 -52.900228 87.129486 51.614216 0.000000 0.000000 0.000000 
-0.198647 86.677505 4.667559 0.000000 0.000000 0.000000 0.145395 -7.868118 -2.987231 -42.374241 8.682374 14.660735 46.861518 -0.996882 2.561107 -5.038880 -2.560318 -2.404037 0.000000 0.000000 0.000000 -2.167420 -29.544383 0.239712 -35.185853 -11.485651 -16.726575 39.875071 -0.140777 -5.140603 -12.550573 -0.970600 2.811676 0.000000 0.000000 0.000000 1.162037 -0.149210 -1.508149 -6.108860 -12.475865 -3.985537 7.062622 2.460380 -0.990785 2.514425 1.981919 -0.253776 0.000000 0.000000 0.000000 3.667988 2.306433 -0.077888 0.314850 0.466019 1.212665 0.000000 0.000000 0.000000 2.607266 2.505072 1.349433 2.522467 -6.578691 13.917758 -39.288057 -35.110659 -45.463771 -2.287071 -76.328375 -1.448301 0.000000 0.000000 0.000000 1.294952 0.217589 -0.574715 1.760703 7.251108 -0.808108 -33.960489 51.804137 33.443109 -70.993635 87.359062 69.479970 0.000000 0.000000 0.000000 
-0.194960 87.253845 4.360662 0.000000 0.000000 0.000000 -0.353698 -6.684240 -3.341466 -42.886222 8.972025 14.397573 46.485089 -0.707624 2.824073 -5.305311 -2.383383 -1.834704 0.000000 0.000000 0.000000 -2.112979 -28.632447 0.308116 -35.022505 -11.256571 -16.545903 39.249433 0.049011 -5.057504 -12.965418 -0.861026 3.010443 0.000000 0.000000 0.000000 -0.420621 -2.808419 -0.794922 -3.539557 -10.041742 -1.233024 5.431167 2.310071 -0.965350 2.727267 2.373513 -0.307940 0.000000 0.000000 0.000000 2.867608 2.771743 0.202503 0.559825 0.456110 1.385086 0.000000 0.000000 0.000000 2.274004 2.672304 1.188777 3.167190 -7.798549 14.852750 -39.118307 -35.516164 -43.923263 1.083938 -76.270988 1.367955 0.000000 0.000000 0.000000 1.558122 0.146657 -0.477296 2.319771 6.961500 -1.160626 -37.042933 53.718799 34.197210 -22.896488 84.729316 21.956937 0.000000 0.000000 0.000000 
